<svg xmlns="http://www.w3.org/2000/svg" version="1.0" width="300" height="300" viewBox="0 0 300.000000 178.000000" preserveAspectRatio="xMidYMid meet">
  <g transform="translate(0.000000,178.000000) scale(0.100000,-0.100000)" fill="black" stroke="none">
    <path d="M1442 1754 c-42 -29 -52 -65 -52 -191 0 -65 5 -160 10 -211 l9 -94 -80 -96 c-175 -212 -230 -337 -215 -486 17 -163 154 -304 314 -323 l54 -6 -6 -46 c-20 -146 -46 -201 -95 -201 -48 0 -68 67 -32 111 14 18 29 24 60 24 37 0 40 1 25 12 -24 17 -69 16 -105 -2 -54 -28 -65 -104 -24 -153 50 -60 137 -47 173 25 24 46 42 128 42 187 l0 43 44 5 c178 20 324 224 287 398 -33 156 -161 265 -315 272 -64 3 -61 -2 -72 129 l-7 86 52 75 c71 105 103 180 109 261 8 117 -39 197 -117 197 -20 0 -47 -7 -59 -16z m79 -34 c54 -29 66 -139 26 -240 -23 -57 -88 -173 -93 -167 -8 7 -24 313 -18 342 6 34 36 75 55 75 6 0 19 -5 30 -10z m-97 -626 c7 -90 7 -92 -16 -97 -37 -10 -97 -65 -128 -121 -38 -66 -39 -96 -1 -35 31 48 75 90 122 115 35 18 35 18 44 -81 25 -274 35 -396 35 -437 l0 -47 -32 6 c-116 22 -202 81 -254 175 -26 48 -29 62 -29 148 0 91 2 98 42 180 35 71 199 298 208 288 1 -2 6 -44 9 -94z m219 -146 c66 -29 133 -105 153 -176 47 -160 -61 -334 -230 -372 l-33 -7 -7 101 c-9 136 -35 413 -43 455 l-6 34 59 -8 c33 -4 81 -16 107 -27z"/>
    <path d="M1640 1726 c0 -2 7 -20 15 -39 21 -51 19 -143 -5 -212 -23 -67 -79 -170 -116 -214 -24 -29 -25 -35 -19 -110 l7 -78 56 -6 c80 -8 170 -56 231 -122 67 -74 94 -145 94 -250 0 -131 -53 -239 -156 -315 l-46 -34 42 -14 c23 -7 72 -14 109 -15 58 -2 70 1 90 21 20 20 23 32 23 108 l0 86 35 29 c19 16 43 36 53 45 27 23 17 56 -22 76 -45 22 -65 43 -56 58 4 6 28 21 53 33 58 28 64 50 23 88 -37 34 -33 51 25 95 41 32 56 56 48 79 -4 9 -50 49 -103 89 -127 97 -158 132 -166 193 -24 186 -54 262 -141 353 -49 52 -74 71 -74 56z m117 -174 c25 -45 49 -133 59 -217 3 -33 12 -71 19 -85 17 -32 92 -104 173 -164 35 -26 62 -55 62 -65 0 -9 -13 -30 -29 -45 -16 -16 -35 -41 -41 -57 -10 -24 -9 -33 9 -62 l21 -35 -32 -24 c-56 -42 -55 -42 -72 14 -38 131 -143 235 -282 279 -38 12 -73 26 -78 30 -5 4 -11 26 -13 49 -4 35 1 49 35 103 65 100 100 177 113 250 7 37 17 67 23 67 6 0 21 -17 33 -38z m253 -917 c0 -6 -16 -26 -35 -45 -42 -41 -54 -79 -48 -147 6 -62 -17 -93 -69 -93 -55 0 -65 13 -34 46 63 68 94 136 121 267 l5 27 30 -22 c17 -12 30 -27 30 -33z"/>
    <path d="M1079 1263 c-69 -76 -157 -205 -190 -279 -78 -176 -76 -346 6 -509 34 -69 98 -155 108 -145 3 3 -10 30 -29 60 -59 94 -87 197 -88 325 -1 91 3 122 23 180 29 88 108 238 175 335 88 126 87 131 -5 33z"/>
    <path d="M1203 1208 c-97 -103 -174 -228 -207 -337 -20 -68 -21 -209 -2 -272 17 -57 51 -123 84 -166 34 -46 47 -41 17 6 -72 115 -92 299 -47 435 38 112 116 251 199 354 52 63 24 51 -44 -20z"/>
  </g>
</svg>
